<?xml version="1.0" encoding="UTF-8"?>
<svg xmlns="http://www.w3.org/2000/svg" width="300" height="106.703" viewBox="0 0 300 106.703">
  <g id="fluxa-logo" transform="translate(0.009 0.005)">
    <path id="Path_95" data-name="Path 95" d="M405.811,132.013h-7.3c-1.022,0-.879.1-1.257-.894-.557-1.462-1.114-2.928-1.623-4.408a.83.83,0,0,0-.927-.667q-6.848.028-13.7,0a.843.843,0,0,0-.942.656c-.528,1.51-1.1,3-1.663,4.5-.3.81-.308.817-1.118.817q-3.7.005-7.376,0c-.136-.381.066-.634.169-.9q6.425-16.686,12.842-33.375a.907.907,0,0,1,1.008-.7c2.565.026,5.133.011,7.7.015.865,0,.872,0,1.194.846q3.105,8.063,6.207,16.129,3.215,8.343,6.427,16.686a2.573,2.573,0,0,1,.352,1.3Zm-12.472-12.494c-1.817-5.012-3.6-9.933-5.386-14.85h-.212c-1.784,4.921-3.569,9.845-5.382,14.85h10.985Z" transform="translate(-234.353 -61.488)" fill="#9bcb27"></path>
    <path id="Path_96" data-name="Path 96" d="M167.08,108.539v-10.6c.011-.879.011-.887.865-.89,1.931,0,3.866,0,5.8,0,.1,0,.2.007.3,0,.374-.033.561.121.542.513-.015.267,0,.531,0,.8v18.694a14.462,14.462,0,0,0,.176,2.788,7.128,7.128,0,0,0,6.749,6.163,11.994,11.994,0,0,0,3.975-.209,7.049,7.049,0,0,0,5.408-5.884,13.667,13.667,0,0,0,.194-2.385q-.011-9.695,0-19.394c0-1.2-.077-1.081,1.07-1.085,1.9,0,3.8-.007,5.7,0,.784,0,.8.015.8.751,0,6.863.015,13.729-.011,20.592a16.636,16.636,0,0,1-.824,5.111,12,12,0,0,1-7.467,7.815,20.753,20.753,0,0,1-14.671.114c-5-1.788-7.665-5.518-8.409-10.71a22.089,22.089,0,0,1-.187-3.188v-9Z" transform="translate(-105.867 -61.493)" fill="#9bcb27"></path>
    <path id="Path_97" data-name="Path 97" d="M269.473,97.016h1.949c1.931,0,3.866.029,5.8-.018a1.417,1.417,0,0,1,1.378.733c2.279,3.444,4.591,6.866,6.9,10.289a2.014,2.014,0,0,0,.641.784c.352-.1.443-.454.616-.714,2.231-3.356,4.474-6.705,6.668-10.083a1.86,1.86,0,0,1,1.828-1.019c2.5.077,4.994.026,7.486.026.128.4-.172.59-.326.813q-5.293,7.579-10.6,15.14a3.24,3.24,0,0,1-.293.4c-.4.418-.311.788.007,1.231,1.59,2.22,3.155,4.459,4.73,6.69q3.512,4.979,7.02,9.966c.128.183.333.333.3.63-.22.172-.495.084-.744.084-2.334.007-4.664-.018-7,.022a1.425,1.425,0,0,1-1.378-.718c-2.492-3.7-5.02-7.379-7.548-11.058-.22-.319-.366-.711-.744-.905-.311.128-.432.418-.6.663-2.572,3.73-5.152,7.449-7.691,11.2a1.6,1.6,0,0,1-1.532.821c-2.231-.044-4.463-.018-6.7-.018H268.7a2.1,2.1,0,0,1,.528-1.015q5.71-8.079,11.428-16.151a1.226,1.226,0,0,0,.018-1.535q-5.271-7.53-10.534-15.066a3.369,3.369,0,0,1-.667-1.2Z" transform="translate(-170.254 -61.453)" fill="#9bcb27"></path>
    <path id="Path_98" data-name="Path 98" d="M0,114.448V98.157c0-1.194-.092-1.1,1.055-1.1H23.642c.2,0,.4.007.6,0,.326-.015.491.125.491.465v5.595c0,.352-.191.462-.506.454-.234,0-.465,0-.7,0H8.634c-.234,0-.465.007-.7,0-.363-.011-.546.121-.542.52q.016,3.149,0,6.295c0,.432.176.6.594.579.231-.015.465,0,.7,0H22.88c.234,0,.465,0,.7,0,.751.022.766.022.769.8q.011,2.451,0,4.9c0,.788-.015.8-.85.8H8.506c-1.227,0-1.107-.117-1.107,1.143q-.005,6.1,0,12.194c0,.235-.011.465,0,.7.018.385-.158.528-.535.528-2.1-.007-4.2-.011-6.3,0-.44,0-.6-.176-.572-.594.015-.231,0-.465,0-.7V114.44Z" transform="translate(0 -61.499)" fill="#9bcb27"></path>
    <path id="Path_99" data-name="Path 99" d="M86.734,114.518V98.426c0-.2,0-.4,0-.6.018-.747.018-.758.791-.762,1.9-.007,3.8,0,5.7,0,.934,0,.942.007.942.912,0,2.165,0,4.331,0,6.5v19.892c0,1.224-.136,1.114,1.132,1.118h12.494c.234,0,.465.011.7,0,.344-.011.476.158.473.484-.007.465,0,.934,0,1.4,0,1.268,0,2.532,0,3.8,0,.85-.011.857-.9.861H87.774c-1.059,0-1.044.117-1.044-1.015V114.518Z" transform="translate(-54.958 -61.5)" fill="#9bcb27"></path>
    <path id="Path_100" data-name="Path 100" d="M663.022,229.112a3.491,3.491,0,0,1-3.463-3.51,3.473,3.473,0,1,1,6.943.121,3.513,3.513,0,0,1-3.484,3.389Z" transform="translate(-417.902 -140.75)" fill="#48c0ea"></path>
    <path id="Path_101" data-name="Path 101" d="M723.882,86.327a3.335,3.335,0,0,1-3.408,3.433,3.642,3.642,0,0,1-3.547-3.51,3.5,3.5,0,0,1,3.492-3.4A3.389,3.389,0,0,1,723.882,86.327Z" transform="translate(-454.249 -52.497)" fill="#48c0ea"></path>
    <path id="Path_102" data-name="Path 102" d="M744.407,146.764a3.463,3.463,0,1,1,0-6.925,3.465,3.465,0,0,1-.007,6.929Z" transform="translate(-469.433 -88.605)" fill="#48c0ea"></path>
    <path id="Path_103" data-name="Path 103" d="M666.524,63.939a3.473,3.473,0,0,1-3.393,3.481,3.436,3.436,0,0,1-3.543-3.43,3.468,3.468,0,0,1,6.936-.051Z" transform="translate(-417.919 -38.342)" fill="#48c0ea"></path>
    <path id="Path_104" data-name="Path 104" d="M587.657,177.911a3.451,3.451,0,0,1-3.437-3.411,3.385,3.385,0,0,1,3.484-3.47,3.344,3.344,0,0,1,3.444,3.4A3.518,3.518,0,0,1,587.657,177.911Z" transform="translate(-370.167 -108.368)" fill="#48c0ea"></path>
    <path id="Path_105" data-name="Path 105" d="M632.568,72.171a3.389,3.389,0,0,1-3.51-3.433,3.477,3.477,0,0,1,3.477-3.408,3.4,3.4,0,0,1,3.474,3.466,3.352,3.352,0,0,1-3.441,3.378Z" transform="translate(-398.575 -41.396)" fill="#48c0ea"></path>
    <path id="Path_106" data-name="Path 106" d="M606.276,204.176a3.434,3.434,0,1,1,.029-6.866,3.433,3.433,0,0,1-.029,6.866Z" transform="translate(-381.92 -125.019)" fill="#48c0ea"></path>
    <path id="Path_107" data-name="Path 107" d="M631.672,214.9a3.349,3.349,0,0,1,3.309,3.5,3.617,3.617,0,0,1-3.481,3.444,3.488,3.488,0,0,1-3.411-3.594,3.351,3.351,0,0,1,3.583-3.353Z" transform="translate(-397.962 -136.16)" fill="#48c0ea"></path>
    <path id="Path_108" data-name="Path 108" d="M591.143,112.6a3.472,3.472,0,1,1-6.943-.015,3.508,3.508,0,0,1,3.364-3.419A3.578,3.578,0,0,1,591.143,112.6Z" transform="translate(-370.154 -69.172)" fill="#48c0ea"></path>
    <path id="Path_109" data-name="Path 109" d="M719.818,197.4a3.283,3.283,0,0,1,3.389,3.408,3.428,3.428,0,0,1-3.426,3.426,3.469,3.469,0,0,1-3.492-3.466A3.338,3.338,0,0,1,719.818,197.4Z" transform="translate(-453.847 -125.075)" fill="#48c0ea"></path>
    <path id="Path_110" data-name="Path 110" d="M737.219,177.9a3.5,3.5,0,0,1-3.51-3.473,3.357,3.357,0,0,1,3.433-3.415,3.444,3.444,0,0,1,.073,6.888Z" transform="translate(-464.883 -108.355)" fill="#48c0ea"></path>
    <path id="Path_111" data-name="Path 111" d="M586.037,143.533A3.316,3.316,0,0,1,582.6,146.9a3.432,3.432,0,1,1,3.433-3.371Z" transform="translate(-366.986 -88.73)" fill="#48c0ea"></path>
    <path id="Path_112" data-name="Path 112" d="M605.4,89.659a3.432,3.432,0,0,1-3.411-3.415,3.519,3.519,0,0,1,3.532-3.43,3.436,3.436,0,0,1,3.349,3.5A3.349,3.349,0,0,1,605.4,89.659Z" transform="translate(-381.426 -52.473)" fill="#48c0ea"></path>
    <path id="Path_113" data-name="Path 113" d="M697.927,218.185a3.357,3.357,0,0,1-3.389,3.536,3.4,3.4,0,0,1-3.448-3.389,3.421,3.421,0,0,1,6.841-.143Z" transform="translate(-437.88 -136.144)" fill="#48c0ea"></path>
    <path id="Path_114" data-name="Path 114" d="M733.728,112.627a3.381,3.381,0,0,1,3.484-3.367,3.23,3.23,0,0,1,3.4,3.415,3.3,3.3,0,0,1-3.4,3.44A3.475,3.475,0,0,1,733.728,112.627Z" transform="translate(-464.895 -69.23)" fill="#48c0ea"></path>
    <path id="Path_115" data-name="Path 115" d="M696.862,68.712a3.368,3.368,0,0,1-3.393,3.415,3.452,3.452,0,0,1-3.452-3.393,3.631,3.631,0,0,1,3.609-3.484,3.4,3.4,0,0,1,3.235,3.462Z" transform="translate(-437.199 -41.345)" fill="#48c0ea"></path>
    <path id="Path_116" data-name="Path 116" d="M686.17,44.651a2.071,2.071,0,0,1,2.048-2.121,2.254,2.254,0,0,1,2.133,2.1,2.3,2.3,0,0,1-2.162,2.2A2.171,2.171,0,0,1,686.17,44.651Z" transform="translate(-434.763 -26.95)" fill="#48c0ea"></path>
    <path id="Path_117" data-name="Path 117" d="M750.05,201.739a2.052,2.052,0,0,1,2.044-2.019,2.2,2.2,0,0,1,2.14,2.184,2.246,2.246,0,0,1-2.14,2.1,2.16,2.16,0,0,1-2.041-2.264Z" transform="translate(-475.237 -126.546)" fill="#48c0ea"></path>
    <path id="Path_118" data-name="Path 118" d="M687.462,243.32a2.021,2.021,0,0,1,1.931,2.2,2.055,2.055,0,0,1-2.169,1.982,2.1,2.1,0,0,1-2.015-2.154,2.152,2.152,0,0,1,2.253-2.026Z" transform="translate(-434.152 -154.171)" fill="#48c0ea"></path>
    <path id="Path_119" data-name="Path 119" d="M754.291,89.807a1.969,1.969,0,0,1-2.081-2.041,2.1,2.1,0,0,1,2.14-2.136,2.091,2.091,0,1,1-.059,4.181Z" transform="translate(-476.605 -54.258)" fill="#48c0ea"></path>
    <path id="Path_120" data-name="Path 120" d="M612.477,57.7a1.993,1.993,0,0,1-2.11,2.14,2.015,2.015,0,0,1-2.067-1.993,2.247,2.247,0,0,1,2.162-2.195A2.021,2.021,0,0,1,612.477,57.7Z" transform="translate(-385.424 -35.263)" fill="#48c0ea"></path>
    <path id="Path_121" data-name="Path 121" d="M569.317,123.217a1.978,1.978,0,0,1-2.063,2.063,2.091,2.091,0,1,1,.04-4.181,2.007,2.007,0,0,1,2.022,2.118Z" transform="translate(-358.071 -76.731)" fill="#48c0ea"></path>
    <path id="Path_122" data-name="Path 122" d="M581.983,198.61a1.983,1.983,0,0,1,2.052,2.077,2.01,2.01,0,0,1-2.059,2.081,2.081,2.081,0,1,1,.011-4.159Z" transform="translate(-367.385 -125.842)" fill="#48c0ea"></path>
    <path id="Path_123" data-name="Path 123" d="M648.967,45.08a1.973,1.973,0,0,1-2.088-1.949A2.178,2.178,0,0,1,648.96,40.9a2.145,2.145,0,0,1,2.107,2.1,2.073,2.073,0,0,1-2.1,2.081Z" transform="translate(-409.867 -25.917)" fill="#48c0ea"></path>
    <path id="Path_124" data-name="Path 124" d="M609.086,231.18a2.006,2.006,0,0,1-2.066-2.074A2.057,2.057,0,0,1,609.076,227a2.143,2.143,0,0,1,2.125,2.07,2.219,2.219,0,0,1-2.118,2.11Z" transform="translate(-384.613 -143.83)" fill="#48c0ea"></path>
    <path id="Path_125" data-name="Path 125" d="M581.9,83.979a1.987,1.987,0,0,1,2.008,2.14,2.1,2.1,0,0,1-2.176,2.012,2.052,2.052,0,0,1-1.993-2.165,2.023,2.023,0,0,1,2.165-1.986Z" transform="translate(-367.327 -53.212)" fill="#48c0ea"></path>
    <path id="Path_126" data-name="Path 126" d="M770.155,124.716a2.153,2.153,0,0,1-2.078,2.121,2.11,2.11,0,0,1-2.078-2.1,2.045,2.045,0,0,1,2.074-2.085,2.019,2.019,0,0,1,2.085,2.066Z" transform="translate(-485.343 -77.714)" fill="#48c0ea"></path>
    <path id="Path_127" data-name="Path 127" d="M723.429,228.04a1.955,1.955,0,0,1,2.008,2.1,2.067,2.067,0,0,1-2.081,2.077,2.172,2.172,0,0,1-2.066-2.136,2.121,2.121,0,0,1,2.136-2.045Z" transform="translate(-457.015 -144.489)" fill="#48c0ea"></path>
    <path id="Path_128" data-name="Path 128" d="M766.97,165.239a2.076,2.076,0,0,1,2.077-2.1,2.114,2.114,0,0,1,2.107,2.081,2.138,2.138,0,0,1-2.1,2.1A2.017,2.017,0,0,1,766.97,165.239Z" transform="translate(-485.957 -103.368)" fill="#48c0ea"></path>
    <path id="Path_129" data-name="Path 129" d="M722.849,58.751a2.058,2.058,0,0,1,2.114-2.041,2.089,2.089,0,0,1-.092,4.177A2.057,2.057,0,0,1,722.849,58.751Z" transform="translate(-458.002 -35.935)" fill="#48c0ea"></path>
    <path id="Path_130" data-name="Path 130" d="M648.432,246.436a2.174,2.174,0,0,1-2.048,2.151,2.13,2.13,0,0,1-2.154-2.026,2.1,2.1,0,0,1,4.206-.125Z" transform="translate(-408.188 -154.879)" fill="#48c0ea"></path>
    <path id="Path_131" data-name="Path 131" d="M565.792,165.141a2.091,2.091,0,1,1-.077-4.181,2.06,2.06,0,0,1,2.052,2.019,1.978,1.978,0,0,1-1.975,2.158Z" transform="translate(-357.126 -101.987)" fill="#48c0ea"></path>
    <path id="Path_132" data-name="Path 132" d="M616.362,257.15a1.551,1.551,0,0,1-.059,3.1,1.548,1.548,0,0,1,.062-3.1Z" transform="translate(-389.536 -162.933)" fill="#48c0ea"></path>
    <path id="Path_133" data-name="Path 133" d="M785.251,195.453a1.529,1.529,0,0,1-1.491,1.561,1.41,1.41,0,0,1-1.51-1.495,1.507,1.507,0,0,1,1.458-1.579A1.536,1.536,0,0,1,785.251,195.453Z" transform="translate(-495.639 -122.883)" fill="#48c0ea"></path>
    <path id="Path_134" data-name="Path 134" d="M720.725,29.429a1.574,1.574,0,0,1,1.532,1.528,1.639,1.639,0,0,1-1.557,1.528,1.6,1.6,0,0,1-1.542-1.422A1.692,1.692,0,0,1,720.725,29.429Z" transform="translate(-455.662 -18.65)" fill="#48c0ea"></path>
    <path id="Path_135" data-name="Path 135" d="M584.91,50.811a1.558,1.558,0,0,1-1.587,1.568,1.506,1.506,0,0,1-1.414-1.51,1.455,1.455,0,0,1,1.455-1.55,1.5,1.5,0,0,1,1.546,1.491Z" transform="translate(-368.703 -31.252)" fill="#48c0ea"></path>
    <path id="Path_136" data-name="Path 136" d="M760.4,59.111a1.56,1.56,0,0,1-1.469-1.565,1.533,1.533,0,0,1,1.488-1.436,1.594,1.594,0,0,1,1.59,1.572A1.543,1.543,0,0,1,760.4,59.111Z" transform="translate(-480.861 -35.555)" fill="#48c0ea"></path>
    <path id="Path_137" data-name="Path 137" d="M788.789,99.74a1.682,1.682,0,0,1-1.531,1.557,1.657,1.657,0,0,1-1.557-1.517,1.705,1.705,0,0,1,1.539-1.554,1.589,1.589,0,0,1,1.546,1.513Z" transform="translate(-497.825 -62.239)" fill="#48c0ea"></path>
    <path id="Path_138" data-name="Path 138" d="M713.561,260.133a1.6,1.6,0,0,1-1.623,1.451,1.56,1.56,0,0,1-1.458-1.5,1.487,1.487,0,0,1,1.553-1.473,1.565,1.565,0,0,1,1.524,1.528Z" transform="translate(-450.165 -163.858)" fill="#48c0ea"></path>
    <path id="Path_139" data-name="Path 139" d="M795.181,147.4a1.51,1.51,0,0,1-1.411,1.51,1.541,1.541,0,1,1-.044-3.081,1.522,1.522,0,0,1,1.458,1.572Z" transform="translate(-501.931 -92.401)" fill="#48c0ea"></path>
    <path id="Path_140" data-name="Path 140" d="M556.235,89.5a1.554,1.554,0,0,1,1.444,1.609,1.532,1.532,0,0,1-1.473,1.48,1.554,1.554,0,0,1-1.491-1.663A1.527,1.527,0,0,1,556.235,89.5Z" transform="translate(-351.47 -56.709)" fill="#48c0ea"></path>
    <path id="Path_141" data-name="Path 141" d="M545.079,138.025a1.664,1.664,0,0,1-1.469,1.513,1.553,1.553,0,0,1-1.5-1.652,1.523,1.523,0,0,1,1.5-1.436,1.552,1.552,0,0,1,1.477,1.576Z" transform="translate(-343.484 -86.458)" fill="#48c0ea"></path>
    <path id="Path_142" data-name="Path 142" d="M578.252,227.893a1.54,1.54,0,0,1-1.5,1.528,1.523,1.523,0,0,1-1.554-1.477,1.5,1.5,0,0,1,1.5-1.524,1.538,1.538,0,0,1,1.55,1.473Z" transform="translate(-364.452 -143.463)" fill="#48c0ea"></path>
    <path id="Path_143" data-name="Path 143" d="M626.5,25.42a1.415,1.415,0,0,1-1.491,1.491A1.518,1.518,0,0,1,623.5,25.4a1.5,1.5,0,0,1,1.524-1.488,1.419,1.419,0,0,1,1.477,1.51Z" transform="translate(-395.055 -15.153)" fill="#48c0ea"></path>
    <path id="Path_144" data-name="Path 144" d="M676.115,18.225a1.547,1.547,0,0,1-1.554,1.583,1.494,1.494,0,0,1-1.422-1.488,1.4,1.4,0,0,1,1.5-1.48,1.355,1.355,0,0,1,1.477,1.385Z" transform="translate(-426.507 -10.673)" fill="#48c0ea"></path>
    <path id="Path_145" data-name="Path 145" d="M755.22,234.537a1.486,1.486,0,0,1-1.561,1.444,1.5,1.5,0,0,1-.022-3A1.557,1.557,0,0,1,755.22,234.537Z" transform="translate(-476.611 -147.619)" fill="#48c0ea"></path>
    <path id="Path_146" data-name="Path 146" d="M552.694,188.406a1.539,1.539,0,0,1-1.348-1.674,1.337,1.337,0,0,1,1.531-1.326,1.606,1.606,0,0,1,1.466,1.59A1.578,1.578,0,0,1,552.7,188.4Z" transform="translate(-349.336 -117.474)" fill="#48c0ea"></path>
    <path id="Path_147" data-name="Path 147" d="M663.8,268.369a1.578,1.578,0,0,1,1.554-1.48,1.537,1.537,0,0,1,1.447,1.473,1.507,1.507,0,0,1-1.517,1.5,1.4,1.4,0,0,1-1.488-1.491Z" transform="translate(-420.589 -169.104)" fill="#48c0ea"></path>
    <path id="Path_148" data-name="Path 148" d="M813.662,120a1.17,1.17,0,0,1-1.2-1.066,1.144,1.144,0,0,1,1.055-1.107,1.193,1.193,0,0,1,1.253,1.008A1.172,1.172,0,0,1,813.662,120Z" transform="translate(-514.779 -74.655)" fill="#48c0ea"></path>
    <path id="Path_149" data-name="Path 149" d="M751.742,26.08a1,1,0,0,1,1.063,1.059,1.027,1.027,0,0,1-1.114,1.118A.959.959,0,0,1,750.65,27.2a.987.987,0,0,1,1.088-1.118Z" transform="translate(-475.617 -16.527)" fill="#48c0ea"></path>
    <path id="Path_150" data-name="Path 150" d="M790.54,65.153a1.075,1.075,0,0,1,1.128-1.107,1.184,1.184,0,0,1,1.026,1.15,1.148,1.148,0,0,1-1.07,1.1A1.03,1.03,0,0,1,790.54,65.153Z" transform="translate(-500.892 -40.582)" fill="#48c0ea"></path>
    <path id="Path_151" data-name="Path 151" d="M749.354,265.58a1.183,1.183,0,0,1-1.1,1.085,1.126,1.126,0,0,1-1.143-1.132,1.155,1.155,0,0,1,1.187-1.1,1.263,1.263,0,0,1,1.063,1.147Z" transform="translate(-473.372 -167.546)" fill="#48c0ea"></path>
    <path id="Path_152" data-name="Path 152" d="M696.8,286.434a1.128,1.128,0,0,1-2.253-.059.972.972,0,0,1,1.074-1.026,1.135,1.135,0,0,1,1.183,1.085Z" transform="translate(-440.071 -180.801)" fill="#48c0ea"></path>
    <path id="Path_153" data-name="Path 153" d="M791.418,227.263a1.223,1.223,0,0,1-1.172,1.132,1.164,1.164,0,0,1-1.055-1.129,1.2,1.2,0,0,1,1.154-1.147A1.315,1.315,0,0,1,791.418,227.263Z" transform="translate(-500.036 -143.272)" fill="#48c0ea"></path>
    <path id="Path_154" data-name="Path 154" d="M592.366,21.989a1.155,1.155,0,0,1-1.162,1.1,1.1,1.1,0,0,1-1.015-1.132,1.089,1.089,0,1,1,2.177.029Z" transform="translate(-373.949 -13.217)" fill="#48c0ea"></path>
    <path id="Path_155" data-name="Path 155" d="M550.909,62.419A1.161,1.161,0,0,1,552,61.25a1.124,1.124,0,0,1,1.081,1.07,1.09,1.09,0,1,1-2.176.1Z" transform="translate(-349.061 -38.811)" fill="#48c0ea"></path>
    <path id="Path_156" data-name="Path 156" d="M526.9,113.168a1.136,1.136,0,0,1,1.107-1.158,1.123,1.123,0,0,1,1.077,1.085,1.145,1.145,0,0,1-1.11,1.161,1.1,1.1,0,0,1-1.074-1.085Z" transform="translate(-333.848 -70.973)" fill="#48c0ea"></path>
    <path id="Path_157" data-name="Path 157" d="M528.6,169.694a.965.965,0,0,1,1.008,1.077,1.046,1.046,0,0,1-1.022,1.1,1.063,1.063,0,0,1-1.15-1.077,1.181,1.181,0,0,1,1.169-1.1Z" transform="translate(-334.191 -107.519)" fill="#48c0ea"></path>
    <path id="Path_158" data-name="Path 158" d="M701.771,2.09a1.145,1.145,0,0,1,1.107,1.074,1.205,1.205,0,0,1-1.205,1.1,1.113,1.113,0,0,1-1.033-1.132A1.141,1.141,0,0,1,701.771,2.09Z" transform="translate(-443.93 -1.328)" fill="#48c0ea"></path>
    <path id="Path_159" data-name="Path 159" d="M586.867,266.388a.958.958,0,0,1-1.088-1.107.986.986,0,0,1,.986-1.033,1.131,1.131,0,0,1,1.172,1.1.963.963,0,0,1-1.07,1.037Z" transform="translate(-371.154 -167.43)" fill="#48c0ea"></path>
    <path id="Path_160" data-name="Path 160" d="M640.644,285.363a1.184,1.184,0,0,1,1.125,1.147,1.212,1.212,0,0,1-1.18.993,1.153,1.153,0,0,1-1.052-1.114,1.079,1.079,0,0,1,1.11-1.03Z" transform="translate(-405.216 -180.807)" fill="#48c0ea"></path>
    <path id="Path_161" data-name="Path 161" d="M644.853,1.213a1.116,1.116,0,0,1-1.107,1.055,1.144,1.144,0,0,1-1.059-1.114c.026-.5.747-1.2,1.195-1.158a1.256,1.256,0,0,1,.971,1.213Z" transform="translate(-407.212)" fill="#48c0ea"></path>
    <path id="Path_162" data-name="Path 162" d="M549.016,222.4a1.164,1.164,0,0,1-1.1,1.074,1.23,1.23,0,0,1-1.114-1.088,1.174,1.174,0,0,1,1.055-1.129,1.214,1.214,0,0,1,1.161,1.139Z" transform="translate(-346.457 -140.192)" fill="#48c0ea"></path>
    <path id="Path_163" data-name="Path 163" d="M811.447,173.42a1.006,1.006,0,0,1,1.041,1.085,1.066,1.066,0,1,1-2.129-.059.961.961,0,0,1,1.088-1.022Z" transform="translate(-513.448 -109.882)" fill="#48c0ea"></path>
  </g>
</svg>
